<svg width="136" height="54" viewBox="0 0 136 54" fill="none" xmlns="http://www.w3.org/2000/svg">
<g clip-path="url(#clip0_160_71)">
<path d="M20.25 24.375L25.5 29.625L30.75 24.375" stroke="url(#paint0_linear_160_71)" stroke-width="2" stroke-linecap="round" stroke-linejoin="round"/>
</g>
<path d="M45.89 33V20.4H51.542C52.994 20.4 54.11 20.694 54.89 21.282C55.67 21.858 56.06 22.65 56.06 23.658C56.06 24.342 55.904 24.918 55.592 25.386C55.292 25.854 54.884 26.214 54.368 26.466C53.852 26.718 53.294 26.844 52.694 26.844L53.018 26.304C53.738 26.304 54.374 26.43 54.926 26.682C55.478 26.934 55.916 27.306 56.24 27.798C56.564 28.278 56.726 28.878 56.726 29.598C56.726 30.678 56.318 31.518 55.502 32.118C54.698 32.706 53.498 33 51.902 33H45.89ZM47.69 31.542H51.83C52.826 31.542 53.588 31.374 54.116 31.038C54.644 30.702 54.908 30.174 54.908 29.454C54.908 28.722 54.644 28.188 54.116 27.852C53.588 27.516 52.826 27.348 51.83 27.348H47.528V25.89H51.38C52.292 25.89 53 25.722 53.504 25.386C54.008 25.05 54.26 24.546 54.26 23.874C54.26 23.202 54.008 22.698 53.504 22.362C53 22.026 52.292 21.858 51.38 21.858H47.69V31.542ZM64.373 33.144C62.717 33.144 61.415 32.67 60.467 31.722C59.519 30.774 59.045 29.388 59.045 27.564V20.4H60.845V27.492C60.845 28.896 61.151 29.922 61.763 30.57C62.387 31.218 63.263 31.542 64.391 31.542C65.531 31.542 66.407 31.218 67.019 30.57C67.643 29.922 67.955 28.896 67.955 27.492V20.4H69.701V27.564C69.701 29.388 69.227 30.774 68.279 31.722C67.343 32.67 66.041 33.144 64.373 33.144ZM75.3048 33V21.966H70.9848V20.4H81.4068V21.966H77.0868V33H75.3048ZM85.685 33V21.966H81.365V20.4H91.787V21.966H87.467V33H85.685ZM98.8997 33.144C97.9397 33.144 97.0457 32.982 96.2177 32.658C95.4017 32.334 94.6937 31.884 94.0937 31.308C93.4937 30.72 93.0257 30.036 92.6897 29.256C92.3537 28.476 92.1857 27.624 92.1857 26.7C92.1857 25.776 92.3537 24.924 92.6897 24.144C93.0257 23.364 93.4937 22.686 94.0937 22.11C94.6937 21.522 95.4017 21.066 96.2177 20.742C97.0337 20.418 97.9277 20.256 98.8997 20.256C99.8597 20.256 100.742 20.418 101.546 20.742C102.362 21.054 103.07 21.504 103.67 22.092C104.282 22.668 104.75 23.346 105.074 24.126C105.41 24.906 105.578 25.764 105.578 26.7C105.578 27.636 105.41 28.494 105.074 29.274C104.75 30.054 104.282 30.738 103.67 31.326C103.07 31.902 102.362 32.352 101.546 32.676C100.742 32.988 99.8597 33.144 98.8997 33.144ZM98.8997 31.542C99.5957 31.542 100.238 31.422 100.826 31.182C101.426 30.942 101.942 30.606 102.374 30.174C102.818 29.73 103.16 29.214 103.4 28.626C103.652 28.038 103.778 27.396 103.778 26.7C103.778 26.004 103.652 25.362 103.4 24.774C103.16 24.186 102.818 23.676 102.374 23.244C101.942 22.8 101.426 22.458 100.826 22.218C100.238 21.978 99.5957 21.858 98.8997 21.858C98.1917 21.858 97.5377 21.978 96.9377 22.218C96.3497 22.458 95.8337 22.8 95.3897 23.244C94.9457 23.676 94.5977 24.186 94.3457 24.774C94.1057 25.362 93.9857 26.004 93.9857 26.7C93.9857 27.396 94.1057 28.038 94.3457 28.626C94.5977 29.214 94.9457 29.73 95.3897 30.174C95.8337 30.606 96.3497 30.942 96.9377 31.182C97.5377 31.422 98.1917 31.542 98.8997 31.542ZM107.969 33V20.4H109.445L117.779 30.75H117.005V20.4H118.805V33H117.329L108.995 22.65H109.769V33H107.969Z" fill="url(#paint1_linear_160_71)"/>
<path d="M0 0V-1H-1V0H0ZM136 0H137V-1H136V0ZM136 54V55H137V54H136ZM0 54H-1V55H0V54ZM0 1H136V-1H0V1ZM135 0V54H137V0H135ZM136 53H0V55H136V53ZM1 54V0H-1V54H1Z" fill="url(#paint2_linear_160_71)"/>
<path d="M0 0V-1H-1V0H0ZM136 0H137V-1H136V0ZM136 54V55H137V54H136ZM0 54H-1V55H0V54ZM0 1H136V-1H0V1ZM135 0V54H137V0H135ZM136 53H0V55H136V53ZM1 54V0H-1V54H1Z" fill="url(#paint3_linear_160_71)" fill-opacity="0.2"/>
<defs>
<linearGradient id="paint0_linear_160_71" x1="30.2868" y1="29.3162" x2="22.9409" y2="22.3448" gradientUnits="userSpaceOnUse">
<stop stop-color="#FFE5A2"/>
<stop offset="0.505208" stop-color="#BF841A"/>
<stop offset="1" stop-color="#FFCD74"/>
</linearGradient>
<linearGradient id="paint1_linear_160_71" x1="117.603" y1="49.0588" x2="50.8572" y2="0.284999" gradientUnits="userSpaceOnUse">
<stop stop-color="#FFE5A2"/>
<stop offset="0.505208" stop-color="#BF841A"/>
<stop offset="1" stop-color="#FFCD74"/>
</linearGradient>
<linearGradient id="paint2_linear_160_71" x1="-6.8764" y1="-4.5" x2="12.4681" y2="47.2595" gradientUnits="userSpaceOnUse">
<stop stop-color="#FFE195"/>
<stop offset="0.177083" stop-color="#F2BB5A" stop-opacity="0.876812"/>
<stop offset="0.359375" stop-color="#BF7A00" stop-opacity="0.75"/>
<stop offset="1" stop-color="#BF7A00" stop-opacity="0"/>
<stop offset="1" stop-color="#0F1218" stop-opacity="0"/>
</linearGradient>
<linearGradient id="paint3_linear_160_71" x1="117.182" y1="62.5909" x2="75.3754" y2="39.5141" gradientUnits="userSpaceOnUse">
<stop stop-color="#8FA8FF"/>
<stop offset="1" stop-opacity="0"/>
</linearGradient>
<clipPath id="clip0_160_71">
<rect width="21" height="21" fill="white" transform="translate(15 16.5)"/>
</clipPath>
</defs>
</svg>
